<svg width="20" height="20" viewBox="0 0 20 20" fill="none" xmlns="http://www.w3.org/2000/svg">
<circle cx="10" cy="10" r="9" fill="#FFE270"/>
<circle cx="10" cy="10" r="7.5" fill="#FD8E01"/>
<path d="M11.7058 4.68675L11.57 5.17566H11.5702L11.3286 6.26213L11.3192 6.26659L11.0018 7.42502L11.0012 7.42092C10.3016 7.26225 9.66841 7.34773 9.06031 7.69885L9.06006 7.69911C8.45171 8.05023 8.05288 8.56719 7.86229 9.25049C7.67119 9.9338 7.75765 10.5928 8.12374 11.2267C8.36472 11.6441 8.69013 11.965 9.10201 12.191C9.51363 12.417 9.94546 12.5265 10.3932 12.5214C10.8411 12.5163 11.2734 12.3945 11.6439 12.1803C12.0148 11.9661 12.3134 11.6804 12.5428 11.3252C12.7713 10.9687 12.9025 10.59 12.9332 10.1887L11.1028 11.2459L10.8967 10.8884L10.4829 10.1855L9.84203 9.16368L14.6076 6.43825L15.0618 7.21741C15.6554 8.23576 15.8908 9.33328 15.7663 10.5113C15.7078 11.0691 15.5585 11.6175 15.3267 12.1286C14.837 13.2128 14.065 14.0557 13.0377 14.6431C12.0104 15.2306 10.8982 15.4653 9.70742 15.3463C9.14452 15.2896 8.59193 15.1427 8.0757 14.9154C6.98264 14.4316 6.13997 13.6794 5.54457 12.658C4.94918 11.6366 4.71298 10.5373 4.8365 9.3578C4.89323 8.80074 5.04382 8.25389 5.27537 7.7428C5.76917 6.66239 6.52882 5.82667 7.55612 5.23921C8.19741 4.87269 8.87712 4.64409 9.59139 4.55674C10.3085 4.4676 11.0132 4.51077 11.7058 4.68675Z" fill="#FFF9CF"/>
<path d="M14.6076 6.43825L14.6075 6.43814H14.6078L14.6076 6.43825Z" fill="#FFF9CF"/>
</svg>
