<svg width="76" height="102" viewBox="0 0 76 102" fill="none" xmlns="http://www.w3.org/2000/svg">
<path d="M15.1005 0.047973L40.3737 0.0530209C46.2468 0.0520606 51.7421 -0.280216 57.566 0.730746C70.771 3.02292 76.3783 13.0622 73.6296 24.9558C72.0985 31.5799 68.6049 35.3824 62.6272 39.0275C63.8364 39.976 64.9988 40.9267 66.1276 41.9602C72.3917 47.6946 76.0075 56.5688 75.9999 64.7519C75.9092 73.3424 72.2479 81.5619 65.7932 87.6665C63.5648 89.7307 61.0593 91.5149 58.3396 92.9742C49.8564 97.5508 43.3199 97.0854 34.0526 97.0829L16.9815 97.064C18.9112 95.245 20.8611 93.445 22.831 91.6642C24.3262 90.3076 25.78 89.0663 27.1083 87.5052C28.1261 86.3092 27.9489 84.2632 28.9428 83.2533C29.1815 83.0106 30.0153 83.5865 30.3605 83.7764C32.9699 85.21 35.7759 86.1644 38.7843 86.5274C44.741 87.2961 50.7756 85.7638 55.5018 82.2819C60.5443 78.6942 63.8341 73.358 64.631 67.4745C65.399 61.5835 63.6219 55.6494 59.6945 50.9918C55.9537 46.5119 50.4627 43.611 44.4339 42.9291C40.3885 42.5925 36.9682 42.938 33.1857 44.4093C27.4238 46.6648 22.8509 50.9666 20.4677 56.3726C17.7353 62.5978 18.3827 68.3421 21.0909 74.3801L19.7694 75.4754C16.4856 75.7576 15.3895 76.8105 13.1693 78.9025C11.9682 80.0343 10.7025 81.2034 9.48982 82.3354L1.29688 89.8782C1.59346 88.4726 1.86139 86.1031 2.09829 84.5941L4.26143 70.5732C4.68159 67.9094 5.0142 65.055 5.61684 62.4557C7.74632 53.2692 12.4523 44.7863 20.586 39.0415C26.5977 34.7956 33.2612 32.506 40.8089 32.2012C45.8695 31.9968 50.6512 32.5816 54.7611 29.0225C56.8934 27.1006 57.6425 24.7916 57.723 22.1032C57.993 13.0686 48.3119 14.1164 41.7376 14.1166L28.7937 14.0986C28.7211 14.4219 28.6809 14.745 28.6354 15.0723C27.8479 20.7412 26.757 26.4082 26.0934 32.0894C17.8705 35.7394 11.9516 40.9801 7.47918 48.3949C8.26982 44.2529 8.78543 39.6866 9.50139 35.4816C11.5002 23.7414 13.0641 11.7665 15.1005 0.047973Z" fill="#133D6A"/>
<path d="M40.6656 46.8221C45.2388 46.4222 50.2474 48.0388 53.7578 50.7723C57.7136 53.8498 60.2012 58.2732 60.6731 63.069C61.1759 67.9273 59.5675 72.7704 56.2115 76.5048C52.9195 80.1132 48.2412 82.3602 43.1914 82.7583C42.4604 82.8162 40.7398 82.8482 40.0559 82.6837L39.4446 82.6751C35.5892 82.1223 32.0002 80.7749 29.1627 78.1992C27.8648 77.2556 26.7999 75.921 25.8647 74.6728C24.1443 72.2008 23.0929 69.3735 22.8021 66.4353C22.3049 61.8041 23.9584 56.8579 27.1136 53.2733C30.3677 49.5655 35.0786 47.24 40.184 46.8211L40.6656 46.8221Z" fill="url(#paint0_linear_364_2)"/>
<path d="M40.6658 46.8221C45.2389 46.4222 50.2475 48.0388 53.7579 50.7723C57.7137 53.8498 60.2013 58.2732 60.6733 63.069C61.176 67.9273 59.5676 72.7704 56.2116 76.5048C52.9197 80.1132 48.2414 82.3602 43.1915 82.7583C42.4605 82.8162 40.7399 82.8482 40.056 82.6837L39.4447 82.6751L39.7255 82.4264C40.3597 82.4244 40.7326 82.1671 41.3859 82.0467C41.5219 81.7286 41.1459 80.0945 41.1419 79.5693C41.1298 78.0332 41.5642 74.3933 41.3954 72.9836C41.3583 71.7128 41.5282 69.8546 41.3199 68.6646C41.286 67.7101 41.6715 66.0271 41.2758 65.408C40.7215 65.6058 38.4698 68.0073 37.5605 68.5308C38.5192 67.4833 40.8898 65.6067 41.5353 64.5767C41.5518 64.5334 43.5969 62.8292 43.8183 62.6351C45.494 61.1405 47.1544 59.6312 48.7996 58.1073C50.1363 56.8928 51.7641 55.4873 52.9904 54.2157C51.0355 52.2692 47.8288 50.5718 45.0446 49.9942C43.8438 49.7528 43.0124 49.7521 41.7806 49.7036C41.417 49.6548 40.9629 49.6546 40.5893 49.643L40.1946 49.6376L40.2496 49.5389C40.1607 48.6948 40.3802 47.6042 40.1841 46.8211L40.6658 46.8221Z" fill="url(#paint1_linear_364_2)"/>
<path d="M40.1836 46.8213L40.6653 46.8223L41.5017 46.9493C41.1046 47.0217 41.0081 46.972 40.7689 47.2101C40.9143 48.0392 40.411 48.951 40.7762 49.5319L40.5888 49.6432L40.1941 49.6378L40.2491 49.539C40.1602 48.6949 40.3797 47.6043 40.1836 46.8213Z" fill="#8FE88A"/>
<path d="M39.7242 82.4266C40.3584 82.4246 40.7312 82.1673 41.3846 82.0469L41.6015 82.5041C41.1498 82.7826 40.7483 82.5824 40.0547 82.6839L39.4434 82.6753L39.7242 82.4266Z" fill="#8FE88A"/>
<path d="M41.7795 49.7036C43.0113 49.7521 43.8427 49.7529 45.0435 49.9942C47.8277 50.5719 51.0344 52.2692 52.9893 54.2157C51.763 55.4873 50.1352 56.8928 48.7985 58.1073C47.1533 59.6313 45.4929 61.1405 43.8172 62.6351C43.5958 62.8292 41.5507 64.5334 41.5342 64.5767C41.2962 64.4312 40.4346 63.658 40.1288 63.4179C37.9988 61.7447 36.285 59.7455 34.0782 58.1331C33.6675 57.8332 32.9161 57.144 32.4943 56.934C32.2427 57.1309 32.2004 57.1435 31.8951 57.2747L31.8112 57.3102C30.0273 59.8297 29.6095 61.2015 28.8696 64.0641C28.7255 64.6213 27.4324 64.9308 26.9859 64.4563C25.7239 63.2729 27.4392 59.4291 28.03 58.1915C28.3011 57.9992 29.4819 55.9364 29.8958 55.49C30.7908 54.5252 31.6979 53.805 32.7212 52.967C32.335 52.3056 34.225 51.9513 34.5171 51.3433C36.9608 49.9971 39.0198 49.8597 41.7795 49.7036Z" fill="#8FE88A"/>
<path d="M41.7795 49.7036C43.0113 49.7521 43.8427 49.7529 45.0435 49.9942C44.4359 50.2589 42.0516 49.711 41.6075 49.9939C42.0261 50.1294 42.3832 50.1833 42.6138 50.511L42.6109 50.6664C43.4049 52.2448 42.4936 52.7644 40.8795 52.8131C37.5074 52.9148 33.8164 54.7629 31.8112 57.3102C30.0273 59.8297 29.6095 61.2015 28.8696 64.0641C28.7255 64.6213 27.4324 64.9308 26.9859 64.4563C25.7239 63.2729 27.4392 59.4291 28.03 58.1915C28.3011 57.9992 29.4819 55.9364 29.8958 55.49C30.7908 54.5252 31.6979 53.805 32.7212 52.967C32.335 52.3056 34.225 51.9513 34.5171 51.3433C36.9608 49.9971 39.0198 49.8597 41.7795 49.7036Z" fill="#96FF02"/>
<path d="M41.78 49.7036C43.0118 49.7521 43.8432 49.7529 45.044 49.9942C44.4364 50.2589 42.0521 49.711 41.608 49.9939C42.0266 50.1294 42.3837 50.1833 42.6143 50.511L42.6114 50.6664C40.1125 49.2249 34.9038 51.6395 32.7217 52.967C32.3355 52.3056 34.2255 51.9513 34.5176 51.3433C36.9613 49.9971 39.0203 49.8597 41.78 49.7036Z" fill="#42D26C"/>
<path d="M27.7704 57.4076C28.1738 57.2845 29.001 56.0578 29.322 55.6689C29.0785 56.1004 27.9532 57.8649 27.9745 58.1321L28.0302 58.1919C27.4394 59.4295 25.7241 63.2733 26.9861 64.4567C27.4326 64.9313 28.7257 64.6217 28.8698 64.0645C29.6097 61.202 30.0275 59.8301 31.8114 57.3106L31.8953 57.2752C32.2006 57.1439 32.2429 57.1314 32.4945 56.9344C32.9163 57.1444 33.6677 57.8336 34.0784 58.1336C36.2852 59.7459 37.999 61.7452 40.129 63.4184C40.4348 63.6584 41.2964 64.4316 41.5344 64.5772C40.8889 65.6072 38.5183 67.4838 37.5596 68.5313C38.4689 68.0078 40.7206 65.6062 41.2749 65.4085C41.6706 66.0275 41.2851 67.7106 41.319 68.665C41.5273 69.8551 41.3574 71.7132 41.3945 72.984C41.5633 74.3938 41.1289 78.0337 41.141 79.5697C41.145 80.0949 41.521 81.729 41.385 82.0471C40.7316 82.1675 40.3588 82.4249 39.7246 82.4268C39.0187 82.1043 38.4281 82.1067 37.8528 81.7659C37.5347 81.24 37.8079 80.743 37.7066 79.8989C37.6246 80.1619 37.6364 80.1659 37.4642 80.3796C37.4679 80.3488 37.2049 78.6077 37.2286 78.6485C37.1027 78.8278 37.084 78.8463 36.9215 78.9984C36.6872 78.5752 36.8171 78.6507 36.4427 78.5296C36.412 77.6069 35.8879 76.7151 35.8101 75.8458C35.7357 75.0165 36.5915 73.3948 35.8777 72.6592C35.8816 73.0746 35.975 73.3731 35.7494 73.6302C35.773 73.2143 35.6497 72.3071 35.2014 72.0902C32.809 70.9333 31.2114 68.8408 29.0267 67.4114C28.1149 66.815 27.0119 66.4707 26.0919 65.8276C25.2258 64.3829 26.5725 58.7881 27.7704 57.4076Z" fill="#42D26C"/>
<path d="M41.3955 72.9841L41.1113 73.006C40.531 71.6623 40.2447 70.0755 40.974 68.7175L40.9633 68.8778C41.1042 68.7687 41.1584 68.747 41.3201 68.665C41.5283 69.8551 41.3585 71.7132 41.3955 72.9841Z" fill="#8FE88A"/>
<path d="M27.7715 57.4077C28.8332 55.5653 32.2723 51.8488 34.5183 51.3438C34.2262 51.9517 32.3362 52.3061 32.7225 52.9675C31.6992 53.8054 30.792 54.5257 29.897 55.4904C29.4832 55.9369 28.3023 57.9996 28.0313 58.1919L27.9755 58.1321C27.9542 57.8649 29.0796 56.1004 29.323 55.669C29.002 56.0578 28.1748 57.2845 27.7715 57.4077Z" fill="#79D2A5"/>
<path d="M21.2018 79.0111C22.5475 77.9161 24.6107 75.9117 25.8646 74.6729C26.7999 75.921 27.8647 77.2557 29.1626 78.1992L24.662 82.356C24.744 83.2617 24.7642 84.7325 24.1114 85.4722C22.451 87.3535 20.4306 89.0749 18.5654 90.7966C15.1793 93.8845 11.8409 97.0304 8.4433 100.106C7.29298 101.147 6.09506 102.079 4.40809 101.994C3.14418 101.931 2.04197 101.441 1.19165 100.571C0.362105 99.7346 -0.0656824 98.6162 0.00820127 97.4766C0.113111 95.9413 1.03258 94.8751 2.16792 93.8473C7.17702 89.313 12.0702 84.6648 17.094 80.1465C18.4502 78.9269 19.4536 78.9045 21.2018 79.0111Z" fill="#133D6A"/>
<ellipse cx="42.4302" cy="64.7036" rx="19.5884" ry="18.9605" fill="url(#paint2_linear_364_2)"/>
<path d="M44.9308 49.8742L44.1987 65.611L28.0545 63.5958C28.0545 63.5958 27.3227 58.487 32.8378 53.3559C37.4181 49.0945 44.9308 49.8742 44.9308 49.8742Z" fill="url(#paint3_linear_364_2)"/>
<path d="M28.0511 63.2378C28.0511 63.2378 27.5742 56.9498 33.2273 53.0072C39.4061 48.6979 44.6327 49.5716 44.6327 49.5716" stroke="#96FF02" stroke-width="2" stroke-linecap="round"/>
<defs>
<linearGradient id="paint0_linear_364_2" x1="41.081" y1="64.5803" x2="22.9197" y2="65.4782" gradientUnits="userSpaceOnUse">
<stop stop-color="#43D650"/>
<stop offset="1" stop-color="#00BA84"/>
</linearGradient>
<linearGradient id="paint1_linear_364_2" x1="60.4502" y1="64.5407" x2="40.746" y2="64.7409" gradientUnits="userSpaceOnUse">
<stop stop-color="#96FF02"/>
<stop offset="1" stop-color="#44D74E"/>
</linearGradient>
<linearGradient id="paint2_linear_364_2" x1="53.2104" y1="48.698" x2="18.3955" y2="81.3748" gradientUnits="userSpaceOnUse">
<stop offset="0.126952" stop-color="#96FF02"/>
<stop offset="0.552885" stop-color="#2ECB38"/>
</linearGradient>
<linearGradient id="paint3_linear_364_2" x1="35.0674" y1="51.2838" x2="47.5034" y2="70.8493" gradientUnits="userSpaceOnUse">
<stop stop-color="#8FE88A"/>
<stop offset="0.358533" stop-color="#4EF745"/>
</linearGradient>
</defs>
</svg>
